<svg xmlns="http://www.w3.org/2000/svg"  viewBox="0 0 100 100" width="100px" height="100px"><path d="M86.5,95c-8.919,0-14.813-3.649-18.285-6.883C65.37,88.704,62.451,89,59.5,89 c-12.183,0-23.39-5.032-30.369-13.392C25.654,77.197,21.761,78,17.5,78c-2.798,0-5.274-1.782-6.164-4.435 c-0.887-2.656,0.018-5.568,2.247-7.252l0,0c-0.002,0,2.006-1.64,3.567-4.549C10.655,55.775,7,47.843,7,39.5 C7,21.58,23.822,7,44.5,7c16.314,0,32.511,8.461,35.633,22.348C90.589,35.321,97,45.556,97,56.5 c0,8.343-4.09,16.985-10.584,22.972c1.575,2.931,4.045,3.874,4.072,3.895c2.171,1.654,3.062,4.568,2.17,7.212 C91.764,93.223,89.289,95,86.5,95z" opacity=".35"/><path fill="#f2f2f2" d="M84.5,93c-8.919,0-14.813-3.649-18.285-6.883C63.37,86.704,60.451,87,57.5,87 c-12.183,0-23.39-5.032-30.369-13.392C23.654,75.197,19.761,76,15.5,76c-2.798,0-5.274-1.782-6.164-4.435 c-0.887-2.656,0.018-5.568,2.247-7.252l0,0c-0.002,0,2.006-1.64,3.567-4.549C8.655,53.775,5,45.843,5,37.5 C5,19.58,21.822,5,42.5,5c16.314,0,30.63,9.087,35.633,22.348C88.589,33.321,95,43.556,95,54.5c0,8.343-3.656,16.275-10.15,22.263 c1.575,2.931,3.611,4.583,3.638,4.604c2.171,1.654,3.062,4.568,2.17,7.212C89.764,91.223,87.289,93,84.5,93z"/><path fill="#707cc0" d="M57.5,28.5c17.121,0,31,11.641,31,26c0,8.115-4.434,15.359-11.379,20.128 C78.987,82.343,84.5,86.5,84.5,86.5c-8.878,0-13.731-4.422-16.096-7.659C65.011,79.911,61.338,80.5,57.5,80.5 c-17.121,0-31-11.641-31-26C26.5,40.141,40.379,28.5,57.5,28.5z"/><line x1="41.5" x2="73.5" y1="47.5" y2="47.5" fill="none" stroke="#f2f2f2" stroke-linecap="round" stroke-miterlimit="10" stroke-width="3"/><line x1="41.5" x2="73.5" y1="57.5" y2="57.5" fill="none" stroke="#f2f2f2" stroke-linecap="round" stroke-miterlimit="10" stroke-width="3"/><line x1="41.5" x2="73.5" y1="67.5" y2="67.5" fill="none" stroke="#f2f2f2" stroke-linecap="round" stroke-miterlimit="10" stroke-width="3"/><path fill="#70bfff" d="M19.445,67.665c1.771-2.141,3.853-5.391,4.892-9.685L24,57l-0.272-0.609 C16.91,51.709,13,44.824,13,37.5C13,23.991,26.233,13,42.5,13S72,23.991,72,37.5S58.767,62,42.5,62 c-3.592,0-7.108-0.535-10.452-1.589l-1.027-0.324l-0.635,0.87C28.453,63.601,25.07,66.664,19.445,67.665z"/><path fill="none" stroke="#40396e" stroke-linecap="round" stroke-linejoin="round" stroke-miterlimit="10" stroke-width="3" d="M77.121,74.628C84.066,69.859,88.5,62.615,88.5,54.5c0-9.704-6.343-18.16-15.736-22.627C69.697,20.22,57.316,11.5,42.5,11.5 c-17.121,0-31,11.641-31,26c0,8.115,4.434,15.359,11.379,20.128C21.013,65.343,15.5,69.5,15.5,69.5 c6.395,0,10.693-2.295,13.485-4.788C33.718,73.994,44.702,80.5,57.5,80.5c3.838,0,7.511-0.589,10.904-1.659 C70.769,82.078,75.622,86.5,84.5,86.5C84.5,86.5,78.987,82.343,77.121,74.628z"/><line x1="26.5" x2="58.5" y1="27.5" y2="27.5" fill="none" stroke="#f2f2f2" stroke-linecap="round" stroke-miterlimit="10" stroke-width="3"/><line x1="26.5" x2="58.5" y1="37.5" y2="37.5" fill="none" stroke="#f2f2f2" stroke-linecap="round" stroke-miterlimit="10" stroke-width="3"/><line x1="26.5" x2="58.5" y1="47.5" y2="47.5" fill="none" stroke="#f2f2f2" stroke-linecap="round" stroke-miterlimit="10" stroke-width="3"/></svg>